<?xml version="1.0" encoding="utf-8"?>
<svg viewBox="0 0 753 536" xmlns="http://www.w3.org/2000/svg" xmlns:xlink="http://www.w3.org/1999/xlink">
  <defs>
    <pattern id="pattern-0-0" patternTransform="matrix(1, 0, 0, 1, 2345.324128, 531.048308)" xlink:href="#pattern-0"/>
    <pattern x="0" y="0" width="25" height="25" patternUnits="userSpaceOnUse" viewBox="0 0 100 100" id="pattern-0">
      <rect width="12.5" height="100" style="fill: rgb(255, 255, 255);"/>
      <rect x="50" width="12.5" height="100" style="fill: rgb(255, 255, 255);"/>
    </pattern>
    <pattern id="pattern-0-1" patternTransform="matrix(1, 0, 0, 1, 2071.231045, 674.625386)" xlink:href="#pattern-0"/>
  </defs>
  <g transform="matrix(1, 0, 0, 1, -1908.627563, -290.198242)" style="">
    <title>Rwan's logo</title>
    <g transform="matrix(1.89325, 0, 0.259946, 1.419873, -929.102295, -104.162025)" style="">
      <title>Filled</title>
      <path d="M 1700.71 440.611 L 1750.471 385.802 L 1618.791 340.479 L 1668.551 285.671 L 1844.123 346.101 L 1694.842 510.528 L 1519.272 450.098 L 1569.032 395.287 L 1700.71 440.611 Z" style="stroke: rgb(255, 255, 255); stroke-width: 1.6963px; fill: rgb(255, 255, 255);" transform="matrix(0.847488, 0.524244, -0.304744, 0.991447, 377.796854, -878.215521)">
        <title>Top</title>
      </path>
      <path d="M 1473.035 582.839 L 1547.676 500.625 L 1415.999 455.302 L 1465.757 400.494 L 1641.33 460.922 L 1516.929 597.946 L 1473.035 582.839 Z" style="stroke: rgb(255, 255, 255); stroke-width: 1.6963px; fill: rgb(255, 255, 255);" transform="matrix(0.847488, 0.524244, -0.304744, 0.991447, 385.273336, -797.123976)">
        <title>Bottom</title>
      </path>
    </g>
    <g transform="matrix(1, 0, 0, 1, -1, 3)">
      <title>Shaded</title>
      <path d="M 2404.888 603.907 L 2484.796 526.085 L 2223.784 461.733 L 2303.681 383.915 L 2651.783 469.716 L 2411.971 703.181 L 2063.866 617.377 L 2143.825 539.554 L 2404.888 603.907 Z" style="stroke-width: 1.6963px; fill: url(#pattern-0-0); fill-rule: nonzero;" transform="matrix(0.919468, 0.393165, -0.393165, 0.919468, 403.584386, -883.240812)">
        <title>Top</title>
      </path>
      <path d="M 2010.831 805.854 L 2130.774 689.12 L 1869.697 624.767 L 1949.654 546.946 L 2297.766 632.747 L 2097.862 827.304 L 2010.831 805.854 Z" style="stroke-width: 1.6963px; fill: url(#pattern-0-1); fill-rule: nonzero;" transform="matrix(0.919468, 0.393165, -0.393165, 0.919468, 437.96056, -763.914559)">
        <title>Bottom</title>
      </path>
    </g>
  </g>
</svg>